<?xml version="1.0" encoding="UTF-8"?>
<svg xmlns="http://www.w3.org/2000/svg" width="480" height="480" viewBox="0 0 480 480" fill="none">
  <defs>
    <linearGradient id="bg-winguard-winspike" x1="0" y1="0" x2="480" y2="480" gradientUnits="userSpaceOnUse">
      <stop offset="0%" stop-color="#16161e"/>
      <stop offset="100%" stop-color="#0a0a0f"/>
    </linearGradient>
    <radialGradient id="spot-winguard-winspike" cx="50%" cy="42%" r="55%">
      <stop offset="0%" stop-color="hsl(313, 35%, 22%)" stop-opacity="0.35"/>
      <stop offset="100%" stop-color="hsl(313, 20%, 8%)" stop-opacity="0"/>
    </radialGradient>
    <linearGradient id="rubber-winguard-winspike" x1="120" y1="160" x2="360" y2="300" gradientUnits="userSpaceOnUse">
      <stop offset="0%" stop-color="#2a2a34"/>
      <stop offset="45%" stop-color="#1a1a22"/>
      <stop offset="100%" stop-color="#121218"/>
    </linearGradient>
    <linearGradient id="shine-winguard-winspike" x1="160" y1="140" x2="300" y2="260" gradientUnits="userSpaceOnUse">
      <stop offset="0%" stop-color="#ffffff" stop-opacity="0.14"/>
      <stop offset="100%" stop-color="#ffffff" stop-opacity="0"/>
    </linearGradient>
  </defs>
  <rect width="480" height="480" fill="url(#bg-winguard-winspike)"/>
  <rect width="480" height="480" fill="url(#spot-winguard-winspike)"/>
  <ellipse cx="240" cy="248" rx="168" ry="108" fill="#08080c" opacity="0.55"/>
  <ellipse cx="240" cy="228" rx="156" ry="96" fill="url(#rubber-winguard-winspike)" stroke="#2e2e3a" stroke-width="2"/>
  <ellipse cx="240" cy="228" rx="132" ry="80" fill="none" stroke="hsl(313, 22%, 32%)" stroke-width="1.5" opacity="0.6"/>
  <path d="M 54 228 Q 240 198 426 228" fill="none" stroke="hsl(313, 12%, 22%)" stroke-width="2.5" opacity="0.85"/>
  <path d="M 74 228 Q 240 198 406 228" fill="none" stroke="hsl(313, 12%, 22%)" stroke-width="2.5" opacity="0.85"/>
  <path d="M 94 228 Q 240 198 386 228" fill="none" stroke="hsl(313, 12%, 22%)" stroke-width="2.5" opacity="0.85"/>
  <path d="M 114 228 Q 240 198 366 228" fill="none" stroke="hsl(313, 12%, 22%)" stroke-width="2.5" opacity="0.85"/>
  <path d="M 134 228 Q 240 198 346 228" fill="none" stroke="hsl(313, 12%, 22%)" stroke-width="2.5" opacity="0.85"/>
  <line x1="328.0" y1="228.0" x2="388.0" y2="228.0" stroke="hsl(313, 18%, 28%)" stroke-width="3" stroke-linecap="round"/>
  <line x1="316.2" y1="254.0" x2="368.2" y2="272.0" stroke="hsl(313, 18%, 28%)" stroke-width="3" stroke-linecap="round"/>
  <line x1="284.0" y1="273.0" x2="314.0" y2="304.2" stroke="hsl(313, 18%, 28%)" stroke-width="3" stroke-linecap="round"/>
  <line x1="240.0" y1="280.0" x2="240.0" y2="316.0" stroke="hsl(313, 18%, 28%)" stroke-width="3" stroke-linecap="round"/>
  <line x1="196.0" y1="273.0" x2="166.0" y2="304.2" stroke="hsl(313, 18%, 28%)" stroke-width="3" stroke-linecap="round"/>
  <line x1="163.8" y1="254.0" x2="111.8" y2="272.0" stroke="hsl(313, 18%, 28%)" stroke-width="3" stroke-linecap="round"/>
  <line x1="152.0" y1="228.0" x2="92.0" y2="228.0" stroke="hsl(313, 18%, 28%)" stroke-width="3" stroke-linecap="round"/>
  <line x1="163.8" y1="202.0" x2="111.8" y2="184.0" stroke="hsl(313, 18%, 28%)" stroke-width="3" stroke-linecap="round"/>
  <line x1="196.0" y1="183.0" x2="166.0" y2="151.8" stroke="hsl(313, 18%, 28%)" stroke-width="3" stroke-linecap="round"/>
  <line x1="240.0" y1="176.0" x2="240.0" y2="140.0" stroke="hsl(313, 18%, 28%)" stroke-width="3" stroke-linecap="round"/>
  <line x1="284.0" y1="183.0" x2="314.0" y2="151.8" stroke="hsl(313, 18%, 28%)" stroke-width="3" stroke-linecap="round"/>
  <line x1="316.2" y1="202.0" x2="368.2" y2="184.0" stroke="hsl(313, 18%, 28%)" stroke-width="3" stroke-linecap="round"/>
  <ellipse cx="240" cy="228" rx="72" ry="44" fill="#0e0e14" stroke="#333340" stroke-width="2"/>
  <ellipse cx="240" cy="228" rx="48" ry="28" fill="#181820" stroke="hsl(313, 30%, 38%)" stroke-width="1.5" opacity="0.7"/>
  <ellipse cx="240" cy="228" rx="156" ry="96" fill="url(#shine-winguard-winspike)"/>
  <text x="240" y="392" fill="rgba(255,255,255,0.42)" font-family="Montserrat, Arial, sans-serif" font-size="13" font-weight="600" text-anchor="middle" letter-spacing="0.06em">Winguard Winspike</text>
</svg>