<?xml version="1.0" encoding="UTF-8"?>
<svg xmlns="http://www.w3.org/2000/svg" width="480" height="480" viewBox="0 0 480 480" fill="none">
  <defs>
    <linearGradient id="bg-advan-sport-v105" x1="0" y1="0" x2="480" y2="480" gradientUnits="userSpaceOnUse">
      <stop offset="0%" stop-color="#16161e"/>
      <stop offset="100%" stop-color="#0a0a0f"/>
    </linearGradient>
    <radialGradient id="spot-advan-sport-v105" cx="50%" cy="42%" r="55%">
      <stop offset="0%" stop-color="hsl(256, 35%, 22%)" stop-opacity="0.35"/>
      <stop offset="100%" stop-color="hsl(256, 20%, 8%)" stop-opacity="0"/>
    </radialGradient>
    <linearGradient id="rubber-advan-sport-v105" x1="120" y1="160" x2="360" y2="300" gradientUnits="userSpaceOnUse">
      <stop offset="0%" stop-color="#2a2a34"/>
      <stop offset="45%" stop-color="#1a1a22"/>
      <stop offset="100%" stop-color="#121218"/>
    </linearGradient>
    <linearGradient id="shine-advan-sport-v105" x1="160" y1="140" x2="300" y2="260" gradientUnits="userSpaceOnUse">
      <stop offset="0%" stop-color="#ffffff" stop-opacity="0.14"/>
      <stop offset="100%" stop-color="#ffffff" stop-opacity="0"/>
    </linearGradient>
  </defs>
  <rect width="480" height="480" fill="url(#bg-advan-sport-v105)"/>
  <rect width="480" height="480" fill="url(#spot-advan-sport-v105)"/>
  <ellipse cx="240" cy="248" rx="168" ry="108" fill="#08080c" opacity="0.55"/>
  <ellipse cx="240" cy="228" rx="156" ry="96" fill="url(#rubber-advan-sport-v105)" stroke="#2e2e3a" stroke-width="2"/>
  <ellipse cx="240" cy="228" rx="132" ry="80" fill="none" stroke="hsl(256, 22%, 32%)" stroke-width="1.5" opacity="0.6"/>
  <path d="M 54 228 Q 240 190 426 228" fill="none" stroke="hsl(256, 12%, 22%)" stroke-width="2.5" opacity="0.85"/>
  <path d="M 74 228 Q 240 190 406 228" fill="none" stroke="hsl(256, 12%, 22%)" stroke-width="2.5" opacity="0.85"/>
  <path d="M 94 228 Q 240 190 386 228" fill="none" stroke="hsl(256, 12%, 22%)" stroke-width="2.5" opacity="0.85"/>
  <path d="M 114 228 Q 240 190 366 228" fill="none" stroke="hsl(256, 12%, 22%)" stroke-width="2.5" opacity="0.85"/>
  <path d="M 134 228 Q 240 190 346 228" fill="none" stroke="hsl(256, 12%, 22%)" stroke-width="2.5" opacity="0.85"/>
  <line x1="328.0" y1="228.0" x2="388.0" y2="228.0" stroke="hsl(256, 18%, 28%)" stroke-width="3" stroke-linecap="round"/>
  <line x1="311.2" y1="258.6" x2="359.7" y2="279.7" stroke="hsl(256, 18%, 28%)" stroke-width="3" stroke-linecap="round"/>
  <line x1="267.2" y1="277.5" x2="285.7" y2="311.7" stroke="hsl(256, 18%, 28%)" stroke-width="3" stroke-linecap="round"/>
  <line x1="212.8" y1="277.5" x2="194.3" y2="311.7" stroke="hsl(256, 18%, 28%)" stroke-width="3" stroke-linecap="round"/>
  <line x1="168.8" y1="258.6" x2="120.3" y2="279.7" stroke="hsl(256, 18%, 28%)" stroke-width="3" stroke-linecap="round"/>
  <line x1="152.0" y1="228.0" x2="92.0" y2="228.0" stroke="hsl(256, 18%, 28%)" stroke-width="3" stroke-linecap="round"/>
  <line x1="168.8" y1="197.4" x2="120.3" y2="176.3" stroke="hsl(256, 18%, 28%)" stroke-width="3" stroke-linecap="round"/>
  <line x1="212.8" y1="178.5" x2="194.3" y2="144.3" stroke="hsl(256, 18%, 28%)" stroke-width="3" stroke-linecap="round"/>
  <line x1="267.2" y1="178.5" x2="285.7" y2="144.3" stroke="hsl(256, 18%, 28%)" stroke-width="3" stroke-linecap="round"/>
  <line x1="311.2" y1="197.4" x2="359.7" y2="176.3" stroke="hsl(256, 18%, 28%)" stroke-width="3" stroke-linecap="round"/>
  <ellipse cx="240" cy="228" rx="72" ry="44" fill="#0e0e14" stroke="#333340" stroke-width="2"/>
  <ellipse cx="240" cy="228" rx="48" ry="28" fill="#181820" stroke="hsl(256, 30%, 38%)" stroke-width="1.5" opacity="0.7"/>
  <ellipse cx="240" cy="228" rx="156" ry="96" fill="url(#shine-advan-sport-v105)"/>
  <text x="240" y="392" fill="rgba(255,255,255,0.42)" font-family="Montserrat, Arial, sans-serif" font-size="13" font-weight="600" text-anchor="middle" letter-spacing="0.06em">Advan Sport V105</text>
</svg>