<?xml version="1.0" encoding="UTF-8"?>
<svg xmlns="http://www.w3.org/2000/svg" width="480" height="480" viewBox="0 0 480 480" fill="none">
  <defs>
    <linearGradient id="bg-bluearth" x1="0" y1="0" x2="480" y2="480" gradientUnits="userSpaceOnUse">
      <stop offset="0%" stop-color="#16161e"/>
      <stop offset="100%" stop-color="#0a0a0f"/>
    </linearGradient>
    <radialGradient id="spot-bluearth" cx="50%" cy="42%" r="55%">
      <stop offset="0%" stop-color="hsl(311, 35%, 22%)" stop-opacity="0.35"/>
      <stop offset="100%" stop-color="hsl(311, 20%, 8%)" stop-opacity="0"/>
    </radialGradient>
    <linearGradient id="rubber-bluearth" x1="120" y1="160" x2="360" y2="300" gradientUnits="userSpaceOnUse">
      <stop offset="0%" stop-color="#2a2a34"/>
      <stop offset="45%" stop-color="#1a1a22"/>
      <stop offset="100%" stop-color="#121218"/>
    </linearGradient>
    <linearGradient id="shine-bluearth" x1="160" y1="140" x2="300" y2="260" gradientUnits="userSpaceOnUse">
      <stop offset="0%" stop-color="#ffffff" stop-opacity="0.14"/>
      <stop offset="100%" stop-color="#ffffff" stop-opacity="0"/>
    </linearGradient>
  </defs>
  <rect width="480" height="480" fill="url(#bg-bluearth)"/>
  <rect width="480" height="480" fill="url(#spot-bluearth)"/>
  <ellipse cx="240" cy="248" rx="168" ry="108" fill="#08080c" opacity="0.55"/>
  <ellipse cx="240" cy="228" rx="156" ry="96" fill="url(#rubber-bluearth)" stroke="#2e2e3a" stroke-width="2"/>
  <ellipse cx="240" cy="228" rx="132" ry="80" fill="none" stroke="hsl(311, 22%, 32%)" stroke-width="1.5" opacity="0.6"/>
  <path d="M 53 228 Q 240 197 427 228" fill="none" stroke="hsl(311, 12%, 22%)" stroke-width="2.5" opacity="0.85"/>
  <path d="M 73 228 Q 240 197 407 228" fill="none" stroke="hsl(311, 12%, 22%)" stroke-width="2.5" opacity="0.85"/>
  <path d="M 93 228 Q 240 197 387 228" fill="none" stroke="hsl(311, 12%, 22%)" stroke-width="2.5" opacity="0.85"/>
  <path d="M 113 228 Q 240 197 367 228" fill="none" stroke="hsl(311, 12%, 22%)" stroke-width="2.5" opacity="0.85"/>
  <path d="M 133 228 Q 240 197 347 228" fill="none" stroke="hsl(311, 12%, 22%)" stroke-width="2.5" opacity="0.85"/>
  <line x1="328.0" y1="228.0" x2="388.0" y2="228.0" stroke="hsl(311, 18%, 28%)" stroke-width="3" stroke-linecap="round"/>
  <line x1="314.0" y1="256.1" x2="364.5" y2="275.6" stroke="hsl(311, 18%, 28%)" stroke-width="3" stroke-linecap="round"/>
  <line x1="276.6" y1="275.3" x2="301.5" y2="308.0" stroke="hsl(311, 18%, 28%)" stroke-width="3" stroke-linecap="round"/>
  <line x1="227.5" y1="279.5" x2="218.9" y2="315.1" stroke="hsl(311, 18%, 28%)" stroke-width="3" stroke-linecap="round"/>
  <line x1="182.4" y1="267.3" x2="143.1" y2="294.5" stroke="hsl(311, 18%, 28%)" stroke-width="3" stroke-linecap="round"/>
  <line x1="155.6" y1="242.7" x2="98.0" y2="252.8" stroke="hsl(311, 18%, 28%)" stroke-width="3" stroke-linecap="round"/>
  <line x1="155.6" y1="213.3" x2="98.0" y2="203.2" stroke="hsl(311, 18%, 28%)" stroke-width="3" stroke-linecap="round"/>
  <line x1="182.4" y1="188.7" x2="143.1" y2="161.5" stroke="hsl(311, 18%, 28%)" stroke-width="3" stroke-linecap="round"/>
  <line x1="227.5" y1="176.5" x2="218.9" y2="140.9" stroke="hsl(311, 18%, 28%)" stroke-width="3" stroke-linecap="round"/>
  <line x1="276.6" y1="180.7" x2="301.5" y2="148.0" stroke="hsl(311, 18%, 28%)" stroke-width="3" stroke-linecap="round"/>
  <line x1="314.0" y1="199.9" x2="364.5" y2="180.4" stroke="hsl(311, 18%, 28%)" stroke-width="3" stroke-linecap="round"/>
  <ellipse cx="240" cy="228" rx="72" ry="44" fill="#0e0e14" stroke="#333340" stroke-width="2"/>
  <ellipse cx="240" cy="228" rx="48" ry="28" fill="#181820" stroke="hsl(311, 30%, 38%)" stroke-width="1.5" opacity="0.7"/>
  <ellipse cx="240" cy="228" rx="156" ry="96" fill="url(#shine-bluearth)"/>
  <text x="240" y="392" fill="rgba(255,255,255,0.42)" font-family="Montserrat, Arial, sans-serif" font-size="13" font-weight="600" text-anchor="middle" letter-spacing="0.06em">BluEarth</text>
</svg>