<?xml version="1.0" encoding="UTF-8"?>
<svg xmlns="http://www.w3.org/2000/svg" width="480" height="480" viewBox="0 0 480 480" fill="none">
  <defs>
    <linearGradient id="bg-starmaxx-suv" x1="0" y1="0" x2="480" y2="480" gradientUnits="userSpaceOnUse">
      <stop offset="0%" stop-color="#16161e"/>
      <stop offset="100%" stop-color="#0a0a0f"/>
    </linearGradient>
    <radialGradient id="spot-starmaxx-suv" cx="50%" cy="42%" r="55%">
      <stop offset="0%" stop-color="hsl(31, 35%, 22%)" stop-opacity="0.35"/>
      <stop offset="100%" stop-color="hsl(31, 20%, 8%)" stop-opacity="0"/>
    </radialGradient>
    <linearGradient id="rubber-starmaxx-suv" x1="120" y1="160" x2="360" y2="300" gradientUnits="userSpaceOnUse">
      <stop offset="0%" stop-color="#2a2a34"/>
      <stop offset="45%" stop-color="#1a1a22"/>
      <stop offset="100%" stop-color="#121218"/>
    </linearGradient>
    <linearGradient id="shine-starmaxx-suv" x1="160" y1="140" x2="300" y2="260" gradientUnits="userSpaceOnUse">
      <stop offset="0%" stop-color="#ffffff" stop-opacity="0.14"/>
      <stop offset="100%" stop-color="#ffffff" stop-opacity="0"/>
    </linearGradient>
  </defs>
  <rect width="480" height="480" fill="url(#bg-starmaxx-suv)"/>
  <rect width="480" height="480" fill="url(#spot-starmaxx-suv)"/>
  <ellipse cx="240" cy="248" rx="168" ry="108" fill="#08080c" opacity="0.55"/>
  <ellipse cx="240" cy="228" rx="156" ry="96" fill="url(#rubber-starmaxx-suv)" stroke="#2e2e3a" stroke-width="2"/>
  <ellipse cx="240" cy="228" rx="132" ry="80" fill="none" stroke="hsl(31, 22%, 32%)" stroke-width="1.5" opacity="0.6"/>
  <path d="M 55 228 Q 240 195 425 228" fill="none" stroke="hsl(31, 12%, 22%)" stroke-width="2.5" opacity="0.85"/>
  <path d="M 75 228 Q 240 195 405 228" fill="none" stroke="hsl(31, 12%, 22%)" stroke-width="2.5" opacity="0.85"/>
  <path d="M 95 228 Q 240 195 385 228" fill="none" stroke="hsl(31, 12%, 22%)" stroke-width="2.5" opacity="0.85"/>
  <path d="M 115 228 Q 240 195 365 228" fill="none" stroke="hsl(31, 12%, 22%)" stroke-width="2.5" opacity="0.85"/>
  <path d="M 135 228 Q 240 195 345 228" fill="none" stroke="hsl(31, 12%, 22%)" stroke-width="2.5" opacity="0.85"/>
  <line x1="328.0" y1="228.0" x2="388.0" y2="228.0" stroke="hsl(31, 18%, 28%)" stroke-width="3" stroke-linecap="round"/>
  <line x1="307.4" y1="261.4" x2="353.4" y2="284.6" stroke="hsl(31, 18%, 28%)" stroke-width="3" stroke-linecap="round"/>
  <line x1="255.3" y1="279.2" x2="265.7" y2="314.7" stroke="hsl(31, 18%, 28%)" stroke-width="3" stroke-linecap="round"/>
  <line x1="196.0" y1="273.0" x2="166.0" y2="304.2" stroke="hsl(31, 18%, 28%)" stroke-width="3" stroke-linecap="round"/>
  <line x1="157.3" y1="245.8" x2="100.9" y2="258.1" stroke="hsl(31, 18%, 28%)" stroke-width="3" stroke-linecap="round"/>
  <line x1="157.3" y1="210.2" x2="100.9" y2="197.9" stroke="hsl(31, 18%, 28%)" stroke-width="3" stroke-linecap="round"/>
  <line x1="196.0" y1="183.0" x2="166.0" y2="151.8" stroke="hsl(31, 18%, 28%)" stroke-width="3" stroke-linecap="round"/>
  <line x1="255.3" y1="176.8" x2="265.7" y2="141.3" stroke="hsl(31, 18%, 28%)" stroke-width="3" stroke-linecap="round"/>
  <line x1="307.4" y1="194.6" x2="353.4" y2="171.4" stroke="hsl(31, 18%, 28%)" stroke-width="3" stroke-linecap="round"/>
  <ellipse cx="240" cy="228" rx="72" ry="44" fill="#0e0e14" stroke="#333340" stroke-width="2"/>
  <ellipse cx="240" cy="228" rx="48" ry="28" fill="#181820" stroke="hsl(31, 30%, 38%)" stroke-width="1.5" opacity="0.7"/>
  <ellipse cx="240" cy="228" rx="156" ry="96" fill="url(#shine-starmaxx-suv)"/>
  <text x="240" y="392" fill="rgba(255,255,255,0.42)" font-family="Montserrat, Arial, sans-serif" font-size="13" font-weight="600" text-anchor="middle" letter-spacing="0.06em">Starmaxx SUV</text>
</svg>