<?xml version="1.0" encoding="UTF-8"?>
<svg xmlns="http://www.w3.org/2000/svg" width="480" height="480" viewBox="0 0 480 480" fill="none">
  <defs>
    <linearGradient id="bg-velox-sport" x1="0" y1="0" x2="480" y2="480" gradientUnits="userSpaceOnUse">
      <stop offset="0%" stop-color="#16161e"/>
      <stop offset="100%" stop-color="#0a0a0f"/>
    </linearGradient>
    <radialGradient id="spot-velox-sport" cx="50%" cy="42%" r="55%">
      <stop offset="0%" stop-color="hsl(101, 35%, 22%)" stop-opacity="0.35"/>
      <stop offset="100%" stop-color="hsl(101, 20%, 8%)" stop-opacity="0"/>
    </radialGradient>
    <linearGradient id="rubber-velox-sport" x1="120" y1="160" x2="360" y2="300" gradientUnits="userSpaceOnUse">
      <stop offset="0%" stop-color="#2a2a34"/>
      <stop offset="45%" stop-color="#1a1a22"/>
      <stop offset="100%" stop-color="#121218"/>
    </linearGradient>
    <linearGradient id="shine-velox-sport" x1="160" y1="140" x2="300" y2="260" gradientUnits="userSpaceOnUse">
      <stop offset="0%" stop-color="#ffffff" stop-opacity="0.14"/>
      <stop offset="100%" stop-color="#ffffff" stop-opacity="0"/>
    </linearGradient>
  </defs>
  <rect width="480" height="480" fill="url(#bg-velox-sport)"/>
  <rect width="480" height="480" fill="url(#spot-velox-sport)"/>
  <ellipse cx="240" cy="248" rx="168" ry="108" fill="#08080c" opacity="0.55"/>
  <ellipse cx="240" cy="228" rx="156" ry="96" fill="url(#rubber-velox-sport)" stroke="#2e2e3a" stroke-width="2"/>
  <ellipse cx="240" cy="228" rx="132" ry="80" fill="none" stroke="hsl(101, 22%, 32%)" stroke-width="1.5" opacity="0.6"/>
  <path d="M 55 228 Q 240 199 425 228" fill="none" stroke="hsl(101, 12%, 22%)" stroke-width="2.5" opacity="0.85"/>
  <path d="M 75 228 Q 240 199 405 228" fill="none" stroke="hsl(101, 12%, 22%)" stroke-width="2.5" opacity="0.85"/>
  <path d="M 95 228 Q 240 199 385 228" fill="none" stroke="hsl(101, 12%, 22%)" stroke-width="2.5" opacity="0.85"/>
  <path d="M 115 228 Q 240 199 365 228" fill="none" stroke="hsl(101, 12%, 22%)" stroke-width="2.5" opacity="0.85"/>
  <path d="M 135 228 Q 240 199 345 228" fill="none" stroke="hsl(101, 12%, 22%)" stroke-width="2.5" opacity="0.85"/>
  <line x1="328.0" y1="228.0" x2="388.0" y2="228.0" stroke="hsl(101, 18%, 28%)" stroke-width="3" stroke-linecap="round"/>
  <line x1="317.9" y1="252.2" x2="371.0" y2="268.9" stroke="hsl(101, 18%, 28%)" stroke-width="3" stroke-linecap="round"/>
  <line x1="290.0" y1="270.8" x2="324.1" y2="300.4" stroke="hsl(101, 18%, 28%)" stroke-width="3" stroke-linecap="round"/>
  <line x1="250.6" y1="279.6" x2="257.8" y2="315.4" stroke="hsl(101, 18%, 28%)" stroke-width="3" stroke-linecap="round"/>
  <line x1="208.8" y1="276.6" x2="187.5" y2="310.3" stroke="hsl(101, 18%, 28%)" stroke-width="3" stroke-linecap="round"/>
  <line x1="174.1" y1="262.5" x2="129.2" y2="286.4" stroke="hsl(101, 18%, 28%)" stroke-width="3" stroke-linecap="round"/>
  <line x1="154.6" y1="240.4" x2="96.3" y2="249.1" stroke="hsl(101, 18%, 28%)" stroke-width="3" stroke-linecap="round"/>
  <line x1="154.6" y1="215.6" x2="96.3" y2="206.9" stroke="hsl(101, 18%, 28%)" stroke-width="3" stroke-linecap="round"/>
  <line x1="174.1" y1="193.5" x2="129.2" y2="169.6" stroke="hsl(101, 18%, 28%)" stroke-width="3" stroke-linecap="round"/>
  <line x1="208.8" y1="179.4" x2="187.5" y2="145.7" stroke="hsl(101, 18%, 28%)" stroke-width="3" stroke-linecap="round"/>
  <line x1="250.6" y1="176.4" x2="257.8" y2="140.6" stroke="hsl(101, 18%, 28%)" stroke-width="3" stroke-linecap="round"/>
  <line x1="290.0" y1="185.2" x2="324.1" y2="155.6" stroke="hsl(101, 18%, 28%)" stroke-width="3" stroke-linecap="round"/>
  <line x1="317.9" y1="203.8" x2="371.0" y2="187.1" stroke="hsl(101, 18%, 28%)" stroke-width="3" stroke-linecap="round"/>
  <ellipse cx="240" cy="228" rx="72" ry="44" fill="#0e0e14" stroke="#333340" stroke-width="2"/>
  <ellipse cx="240" cy="228" rx="48" ry="28" fill="#181820" stroke="hsl(101, 30%, 38%)" stroke-width="1.5" opacity="0.7"/>
  <ellipse cx="240" cy="228" rx="156" ry="96" fill="url(#shine-velox-sport)"/>
  <text x="240" y="392" fill="rgba(255,255,255,0.42)" font-family="Montserrat, Arial, sans-serif" font-size="13" font-weight="600" text-anchor="middle" letter-spacing="0.06em">Velox Sport</text>
</svg>