<?xml version="1.0" standalone="no"?>
<!DOCTYPE svg PUBLIC "-//W3C//DTD SVG 20010904//EN"
 "http://www.w3.org/TR/2001/REC-SVG-20010904/DTD/svg10.dtd">
<svg version="1.0" xmlns="http://www.w3.org/2000/svg"
 width="2000.000000pt" height="1295.000000pt" viewBox="0 0 2000.000000 1295.000000"
 preserveAspectRatio="xMidYMid meet">

<g transform="translate(0.000000,1295.000000) scale(0.100000,-0.100000)"
fill="#000000" stroke="none">
<path d="M10786 12918 c-3 -18 -17 -105 -31 -193 -43 -270 -104 -659 -140
-890 -19 -121 -46 -290 -59 -375 -35 -222 -164 -1042 -311 -1975 -88 -559
-126 -810 -128 -830 -2 -20 4 -20 367 -20 l370 0 7 30 c4 17 26 149 49 295 67
435 156 1008 200 1285 22 143 49 316 60 385 26 168 55 356 145 930 42 267 91
584 110 705 19 121 50 321 70 444 19 123 35 228 35 233 0 4 -166 8 -369 8
l-369 0 -6 -32z"/>
<path d="M9310 12931 c0 -5 -9 -62 -20 -127 -11 -66 -47 -289 -80 -497 -33
-208 -62 -383 -65 -388 -4 -5 -119 -9 -266 -9 -151 0 -259 -4 -259 -9 0 -5 16
-19 34 -31 53 -32 162 -154 247 -276 117 -166 123 -181 127 -304 3 -93 -6
-164 -77 -620 -45 -283 -101 -630 -124 -770 -36 -222 -41 -275 -41 -410 0
-184 18 -270 90 -419 89 -186 173 -273 339 -352 156 -73 216 -83 505 -84 l255
0 12 70 c6 39 26 165 42 280 17 116 33 222 36 237 l4 26 -152 4 c-129 3 -159
7 -198 25 -163 74 -205 215 -156 513 15 85 54 326 87 535 88 551 149 927 155
952 l5 23 292 2 292 3 51 295 50 295 -297 3 c-287 2 -298 3 -298 22 0 16 70
453 140 874 11 65 20 125 20 132 0 12 -64 14 -375 14 -208 0 -375 -4 -375 -9z"/>
<path d="M2646 11883 c-5 -23 -145 -892 -216 -1343 -10 -63 -78 -482 -150
-930 -271 -1686 -320 -1992 -320 -2006 0 -12 55 -14 377 -12 l377 3 76 515 76
515 734 0 c865 1 917 5 1129 92 260 106 474 330 594 623 57 137 58 142 152
765 76 503 95 631 111 735 27 174 24 359 -9 483 -45 171 -119 290 -242 390
-74 60 -233 139 -340 169 l-80 23 -1132 3 -1131 2 -6 -27z m1990 -600 c61 -20
160 -116 192 -186 34 -73 35 -118 8 -292 -14 -88 -50 -320 -80 -515 -115 -739
-107 -702 -167 -808 -67 -116 -194 -209 -318 -232 -32 -6 -302 -10 -677 -10
-610 0 -624 0 -624 19 0 11 27 185 60 388 75 458 146 895 211 1298 27 171 52
320 55 333 l4 22 643 0 c575 0 649 -2 693 -17z"/>
<path d="M6657 11894 c-166 -26 -290 -84 -439 -203 -215 -171 -328 -325 -431
-586 -28 -72 -42 -132 -66 -295 -17 -113 -67 -443 -111 -735 -44 -291 -80
-558 -80 -592 0 -158 48 -343 121 -466 50 -84 162 -198 242 -245 30 -19 91
-49 134 -67 158 -68 82 -65 1635 -65 l1403 0 -50 34 c-71 48 -193 179 -247
266 -51 82 -100 191 -118 261 l-11 45 -1057 -1 c-995 0 -1060 1 -1104 18 -115
45 -209 220 -194 364 6 60 51 310 61 343 4 13 103 15 812 15 907 0 871 -3
1039 75 370 171 607 518 656 957 28 253 -44 466 -222 657 -98 104 -197 164
-341 207 -73 22 -86 22 -809 25 -598 2 -751 0 -823 -12z m1258 -595 c61 -15
127 -76 161 -147 23 -47 29 -74 32 -155 4 -90 2 -101 -22 -152 -46 -93 -151
-184 -266 -232 l-55 -23 -664 0 -663 0 7 58 c16 139 57 309 90 378 46 95 142
186 255 243 l82 41 500 0 c334 0 514 -4 543 -11z"/>
<path d="M15680 11901 c-212 -12 -348 -57 -549 -181 -256 -159 -447 -444 -512
-765 -17 -83 -14 -245 5 -337 35 -162 129 -348 226 -445 69 -69 198 -134 335
-169 l100 -26 615 -7 615 -6 66 -31 c76 -36 133 -89 160 -148 53 -116 -13
-362 -119 -443 -23 -17 -67 -41 -99 -53 -144 -54 -94 -51 -1173 -58 l-1005 -7
-17 -100 c-25 -150 -68 -442 -68 -460 0 -14 116 -15 1198 -13 l1197 3 90 33
c370 134 602 371 710 725 75 247 71 528 -10 703 -83 182 -261 335 -477 412
l-73 26 -615 7 c-338 4 -637 10 -665 13 -82 9 -125 25 -171 68 -61 56 -79 109
-79 233 0 93 2 105 33 167 41 84 125 162 230 215 l77 38 918 3 c677 2 917 5
917 14 0 6 19 139 41 295 23 156 39 286 36 289 -8 9 -1792 13 -1937 5z"/>
<path d="M11515 11888 c-6 -20 -95 -553 -95 -571 0 -15 88 -16 1018 -14 961 2
1020 1 1069 -16 74 -26 143 -92 178 -169 37 -81 38 -163 3 -383 l-25 -160
-759 -6 c-429 -4 -785 -11 -819 -17 -241 -40 -432 -145 -610 -334 -96 -101
-191 -237 -246 -351 -107 -224 -111 -582 -9 -789 78 -156 222 -289 405 -374
144 -67 83 -64 1341 -64 l1141 0 21 148 c12 81 28 190 37 242 21 136 182 1171
205 1320 11 69 31 199 45 290 49 305 55 355 55 462 0 115 -16 213 -50 299 -32
81 -124 213 -206 295 -83 83 -185 139 -319 176 l-80 23 -1148 3 c-925 2 -1148
0 -1152 -10z m2045 -1940 c0 -13 -11 -93 -24 -178 -13 -85 -37 -239 -52 -342
l-28 -188 -650 0 -651 0 -63 30 c-158 75 -223 212 -176 371 45 150 141 248
301 305 l68 24 638 0 637 0 0 -22z"/>
<path d="M10 3000 l0 -3000 9990 0 9990 0 0 3000 0 3000 -9990 0 -9990 0 0
-3000z m11520 2586 c0 -12 -43 -288 -145 -941 -49 -313 -206 -1317 -270 -1730
-30 -192 -75 -480 -100 -640 -25 -159 -52 -333 -60 -385 -33 -218 -85 -547
-90 -577 l-6 -33 -380 0 -379 0 5 23 c5 21 27 160 110 692 20 127 56 358 81
515 24 157 51 326 59 375 8 50 33 205 55 345 48 311 125 796 225 1435 91 575
145 923 145 930 0 3 169 5 375 5 314 0 375 -2 375 -14z m-1470 -15 c0 -10 -36
-239 -80 -507 -44 -269 -80 -494 -80 -501 0 -10 64 -13 300 -13 l300 0 -6 -27
c-3 -16 -27 -152 -52 -303 l-47 -275 -293 -3 -292 -2 -5 -23 c-3 -12 -18 -105
-35 -207 -60 -374 -102 -634 -160 -995 -74 -449 -75 -462 -61 -553 18 -118 62
-181 164 -234 37 -20 61 -23 200 -26 86 -2 157 -5 157 -7 0 -1 -20 -138 -45
-304 -25 -166 -45 -303 -45 -306 0 -3 -119 -5 -263 -5 -228 0 -274 3 -339 19
-100 26 -204 71 -276 120 -209 142 -347 466 -329 771 3 52 60 439 127 860 125
789 137 894 111 988 -27 96 -260 404 -351 463 -88 57 -81 59 215 59 146 0 265
2 265 4 0 2 36 229 80 504 44 274 80 504 80 510 0 9 100 12 380 12 366 0 380
-1 380 -19z m-5154 -1022 c148 -26 311 -96 423 -182 172 -133 281 -381 281
-642 0 -59 -20 -219 -59 -485 -46 -309 -152 -999 -161 -1047 -22 -125 -100
-305 -185 -433 -184 -275 -423 -426 -755 -478 -92 -14 -198 -16 -842 -13
l-737 3 -6 -24 c-5 -24 -23 -143 -144 -968 l-6 -45 -383 -3 c-329 -2 -382 0
-382 12 0 8 27 185 61 393 34 208 69 430 79 493 10 63 66 412 125 775 59 363
113 698 120 745 7 47 79 493 159 993 80 499 146 910 146 912 0 11 2207 5 2266
-6z m3369 -13 c33 -10 102 -38 154 -63 77 -38 110 -62 176 -127 143 -143 220
-288 246 -466 36 -247 -55 -588 -219 -820 -138 -197 -382 -365 -602 -417 -68
-16 -145 -18 -878 -18 -704 0 -803 -2 -807 -15 -11 -38 -45 -224 -56 -305 -10
-79 -10 -97 5 -150 36 -122 92 -201 172 -241 38 -18 71 -19 1103 -19 l1063 0
33 -93 c41 -115 90 -205 163 -301 55 -72 163 -171 210 -194 12 -5 22 -14 22
-19 0 -4 -632 -8 -1404 -8 -1204 0 -1415 2 -1475 15 -315 66 -551 285 -626
580 -43 170 -43 261 4 570 23 149 57 374 76 500 19 127 44 291 55 365 11 74
28 182 36 239 24 158 109 363 216 518 92 133 313 326 458 398 186 93 208 94
1080 91 652 -3 742 -5 795 -20z m9343 9 c3 -3 -13 -137 -36 -298 -23 -160 -42
-295 -42 -299 0 -4 -413 -9 -918 -10 l-918 -3 -77 -38 c-200 -99 -294 -267
-257 -461 17 -92 56 -148 128 -183 56 -27 60 -28 312 -35 140 -3 433 -7 651
-7 373 -1 401 -2 465 -22 146 -45 272 -121 379 -228 85 -86 137 -169 172 -276
25 -74 27 -93 28 -255 0 -134 -4 -194 -18 -255 -68 -299 -198 -511 -415 -676
-85 -65 -261 -151 -376 -184 l-88 -25 -1179 0 c-1085 0 -1179 1 -1179 16 0 9
9 76 20 148 11 72 31 196 43 276 l22 145 1005 6 c972 7 1007 7 1082 27 158 43
236 99 283 206 49 112 60 250 24 323 -27 56 -97 117 -168 145 -55 22 -64 22
-661 28 -667 7 -681 8 -845 74 -151 60 -232 128 -314 265 -107 177 -146 331
-138 535 6 149 30 248 97 392 122 263 308 449 580 578 142 67 229 88 405 97
161 8 1925 3 1933 -6z m-3818 -5 c103 -17 220 -56 288 -97 147 -90 299 -285
354 -455 24 -77 35 -307 20 -413 -6 -38 -29 -187 -52 -330 -37 -236 -70 -450
-245 -1580 -31 -198 -58 -366 -60 -373 -4 -10 -233 -12 -1172 -10 l-1168 3
-87 33 c-157 60 -341 202 -423 325 -80 121 -115 260 -115 458 0 236 46 386
178 581 198 292 460 472 752 518 51 8 319 14 830 17 l755 5 25 162 c33 213 33
303 -1 376 -35 74 -67 110 -131 145 l-53 30 -250 7 c-137 4 -607 4 -1042 1
-746 -6 -793 -5 -793 11 0 16 85 525 95 574 l5 22 1113 0 c715 0 1135 -4 1177
-10z"/>
<path d="M3296 3913 c-6 -28 -111 -668 -146 -888 -10 -66 -39 -248 -65 -405
-84 -515 -115 -705 -115 -717 0 -17 1206 -19 1294 -2 157 29 292 146 356 310
24 59 24 60 111 619 33 212 69 441 79 510 52 329 51 342 -23 452 -45 67 -112
120 -175 138 -23 6 -271 10 -674 10 l-636 0 -6 -27z"/>
<path d="M6860 3943 c-49 -17 -141 -71 -189 -108 -86 -68 -138 -141 -165 -235
-15 -51 -66 -318 -66 -347 0 -10 132 -13 664 -13 l664 0 83 42 c93 46 192 136
223 202 59 126 17 338 -81 413 -68 52 -71 52 -613 52 -278 0 -512 -3 -520 -6z"/>
<path d="M12220 2587 c-168 -57 -265 -158 -306 -318 -40 -155 22 -275 180
-350 l61 -29 646 0 646 0 21 138 c58 379 82 542 82 561 l0 21 -632 0 c-628 -1
-634 -1 -698 -23z"/>
</g>
</svg>
