<?xml version="1.0" standalone="no"?>
<!DOCTYPE svg PUBLIC "-//W3C//DTD SVG 20010904//EN"
 "http://www.w3.org/TR/2001/REC-SVG-20010904/DTD/svg10.dtd">
<svg version="1.0" xmlns="http://www.w3.org/2000/svg"
 width="2000.000000pt" height="234.000000pt" viewBox="0 0 2000.000000 234.000000"
 preserveAspectRatio="xMidYMid meet">

<g transform="translate(0.000000,234.000000) scale(0.100000,-0.100000)"
fill="#000000" stroke="none">
<path d="M12380 2333 c-261 -4 -591 -23 -662 -38 -228 -48 -374 -161 -482
-374 -136 -269 -192 -559 -132 -686 29 -62 55 -87 127 -119 107 -49 288 -62
1284 -90 478 -13 490 -15 508 -70 12 -37 -15 -139 -53 -200 -54 -85 -15 -81
-710 -84 -338 -2 -638 0 -667 3 -29 3 -67 16 -85 28 -30 21 -33 27 -36 82 -1
33 -4 70 -7 81 -9 40 -45 45 -325 42 l-265 -3 -28 -95 c-80 -268 -75 -393 17
-478 71 -66 197 -103 411 -121 344 -30 1520 -20 1745 14 226 35 350 101 472
254 183 228 298 649 225 822 -34 81 -120 144 -233 169 -123 28 -352 41 -864
50 -546 10 -704 19 -762 43 -77 33 -96 101 -55 190 31 69 59 85 170 97 112 13
1075 13 1157 0 80 -13 114 -36 118 -79 l3 -32 299 3 c257 3 302 5 315 19 26
25 48 136 49 244 1 119 -18 166 -86 213 -160 108 -457 132 -1448 115z"/>
<path d="M15430 2334 c-320 -7 -595 -25 -685 -45 -165 -36 -295 -115 -382
-232 -162 -220 -279 -627 -228 -790 18 -59 66 -116 118 -144 104 -54 324 -70
1227 -93 250 -7 478 -16 506 -21 71 -14 88 -35 81 -101 -6 -65 -45 -154 -81
-190 -48 -47 -84 -49 -757 -46 -551 3 -628 5 -660 19 -58 27 -68 71 -44 187
l8 32 -306 0 -305 0 -22 -71 c-99 -327 -87 -454 50 -538 108 -66 246 -88 655
-103 344 -12 1305 3 1435 22 108 17 222 48 288 81 232 114 432 480 449 820 7
139 -8 196 -65 254 -87 88 -193 113 -572 135 -91 5 -296 10 -457 10 -357 0
-679 15 -752 36 -30 9 -64 27 -78 42 -50 54 -15 193 57 232 45 24 231 31 750
28 583 -4 598 -6 626 -59 8 -16 14 -35 14 -44 0 -14 34 -15 308 -13 l307 3 23
90 c31 119 33 234 5 295 -46 105 -171 160 -423 190 -94 11 -808 20 -1090 14z"/>
<path d="M5573 2268 c-12 -6 -25 -18 -28 -27 -79 -199 -715 -1938 -715 -1954
0 -13 6 -32 14 -43 14 -19 38 -19 1023 -21 788 -2 1013 0 1032 10 20 10 40 53
102 222 43 116 79 217 79 225 0 9 -7 26 -16 38 l-15 22 -700 0 c-384 0 -699 4
-699 8 0 5 119 331 265 726 146 394 265 727 265 739 0 13 -6 32 -14 43 -14 18
-30 19 -293 21 -183 1 -285 -2 -300 -9z"/>
<path d="M9010 2267 c-24 -12 -1684 -1885 -1721 -1942 -25 -39 -24 -51 6 -80
l24 -25 283 0 c203 1 289 4 304 13 12 7 99 101 194 210 l174 197 728 0 728 0
67 -210 67 -210 329 0 c365 0 386 3 387 64 0 10 -115 395 -256 855 -363 1190
-339 1116 -369 1129 -38 18 -910 17 -945 -1z m485 -826 c64 -216 119 -400 122
-407 4 -12 -65 -14 -443 -13 -247 1 -472 4 -501 7 l-52 7 371 408 c204 224
375 404 379 400 3 -4 59 -185 124 -402z"/>
<path d="M18423 2268 c-26 -15 -1709 -1922 -1725 -1955 -15 -31 -3 -68 27 -81
31 -14 551 -17 587 -3 13 5 104 100 201 210 l178 201 727 -2 727 -3 65 -195
c55 -165 69 -197 90 -207 31 -16 615 -18 654 -3 60 22 69 -17 -252 1033 -168
551 -307 986 -316 995 -15 15 -62 17 -479 20 -355 1 -467 -1 -484 -10z m371
-435 c113 -376 236 -795 236 -803 0 -11 -846 -13 -939 -2 l-55 7 370 407 c203
223 372 407 376 407 4 1 9 -7 12 -16z"/>
<path d="M4870 2195 c-8 -2 -49 -9 -90 -15 -158 -26 -282 -82 -532 -238 -170
-107 -278 -162 -372 -191 -84 -26 -231 -44 -319 -39 l-67 3 -26 -50 c-72 -134
-246 -326 -420 -460 -97 -75 -321 -225 -338 -226 -6 0 -2 -4 9 -9 34 -15 231
-11 305 6 91 20 219 86 420 215 211 136 335 204 419 229 314 93 679 73 1039
-59 75 -27 84 -28 89 -13 4 9 76 197 160 416 84 220 153 403 153 406 0 18
-358 39 -430 25z m328 -53 c20 -6 21 -9 10 -24 -12 -15 -25 -16 -118 -9 -58 5
-133 8 -167 7 -33 -1 -56 2 -50 6 8 5 7 8 -3 9 -10 0 -8 3 5 9 23 10 289 11
323 2z"/>
<path d="M1595 2016 c-5 -3 -35 -7 -66 -11 -34 -4 -64 -14 -77 -25 -11 -10
-23 -16 -28 -12 -4 4 -4 1 0 -5 4 -8 2 -13 -5 -13 -7 0 -10 -2 -8 -5 3 -2 43
3 89 11 113 20 363 19 510 -1 276 -39 772 -166 747 -192 -6 -6 -192 32 -401
81 -281 66 -381 80 -596 81 -128 0 -218 -5 -264 -14 -63 -13 -75 -20 -155 -88
-47 -41 -85 -79 -83 -84 1 -5 -1 -9 -5 -8 -19 3 -53 -15 -58 -30 -3 -9 -26
-32 -49 -51 -24 -19 -41 -39 -38 -44 3 -5 -2 -7 -11 -3 -10 4 -16 2 -14 -6 1
-7 -4 -11 -11 -9 -8 1 -11 -2 -8 -7 4 -5 0 -13 -8 -18 -14 -8 -120 -100 -167
-145 -16 -15 -29 -25 -29 -23 0 2 -14 -9 -32 -26 -35 -31 -67 -44 -140 -54
-26 -3 -57 -14 -68 -23 -21 -17 -13 -17 167 -14 263 6 458 -24 1016 -154 310
-72 426 -93 438 -78 9 11 5 16 -20 25 -17 6 -31 14 -30 17 0 4 165 144 366
312 200 168 375 314 387 325 15 14 35 20 64 19 24 -1 45 3 49 9 4 6 1 7 -7 2
-9 -6 -11 -4 -6 4 5 7 15 10 25 6 10 -4 13 -3 6 4 -5 5 -138 37 -295 71 -157
33 -320 70 -363 81 -103 26 -251 56 -367 75 -88 14 -433 29 -455 20z"/>
<path d="M3986 1309 c-224 -24 -376 -92 -669 -302 -240 -172 -337 -208 -567
-210 -74 0 -180 5 -235 12 l-100 13 -106 -50 c-123 -59 -264 -116 -439 -179
-135 -47 -361 -115 -367 -109 -2 2 26 27 62 55 38 30 63 56 59 63 -4 7 -3 8 5
4 6 -4 14 0 17 8 3 9 10 13 15 11 4 -3 14 3 21 15 7 11 19 20 26 20 9 0 12 6
8 17 -4 10 -4 14 0 11 3 -4 13 0 21 8 8 8 19 11 25 8 7 -4 8 -2 4 4 -4 7 0 22
8 34 10 14 16 17 16 8 0 -9 5 -7 15 8 9 12 41 42 71 67 39 31 50 45 37 45 -11
0 -27 6 -37 13 -16 12 -16 14 -2 14 9 0 16 -4 16 -9 0 -5 4 -7 9 -4 5 3 37 2
70 -2 34 -5 61 -5 61 0 0 4 8 8 18 9 9 0 -87 25 -215 54 -127 29 -264 63 -305
74 -188 52 -419 95 -593 111 -325 28 -507 -47 -670 -275 -52 -74 -259 -424
-254 -430 2 -2 36 6 74 17 58 17 99 21 235 22 150 0 174 -2 264 -27 117 -32
235 -79 446 -177 405 -188 636 -252 915 -254 224 -2 316 31 950 336 281 136
347 160 486 178 283 37 742 -38 1122 -183 43 -16 80 -27 83 -25 6 7 313 835
316 855 4 20 -127 59 -342 102 -227 47 -399 59 -574 40z m484 -55 c96 -15 335
-70 357 -83 7 -4 9 -12 4 -20 -7 -11 -32 -8 -137 18 -160 38 -260 57 -389 71
-108 13 -119 16 -109 32 8 13 132 4 274 -18z m-3275 -194 c194 -38 395 -89
395 -101 0 -13 -12 -11 -98 10 -156 40 -463 90 -589 97 -201 10 -331 -18 -448
-97 l-60 -40 40 37 c115 105 221 135 455 129 109 -3 184 -11 305 -35z m3456
-397 c-12 -20 -14 -14 -5 12 4 9 9 14 11 11 3 -2 0 -13 -6 -23z m-22 -62 c-6
-18 -13 -30 -15 -28 -2 2 1 18 7 36 6 18 13 30 15 28 2 -2 -1 -18 -7 -36z
m-30 -80 c-6 -18 -13 -30 -15 -28 -2 2 1 18 7 36 6 18 13 30 15 28 2 -2 -1
-18 -7 -36z m-28 -75 c-14 -36 -22 -33 -9 5 6 16 12 28 14 26 3 -2 0 -16 -5
-31z"/>
</g>
</svg>
